{"glyphs":{":":{"x_min":0,"x_max":316,"ha":316,"o":"m 98 0 l 98 121 l 218 121 l 218 0 z m 98 410 l 98 530 l 218 530 l 218 410 z"},"$":{"x_min":0,"x_max":632,"ha":632,"o":"m 299 -60 l 299 0 q 194 5 106 42 l 106 145 l 161 145 l 167 93 q 227 55 299 48 l 299 334 q 205 391 167 439 q 130 486 130 552 q 130 622 177 670 q 224 717 299 723 l 299 783 l 347 783 l 347 723 q 431 719 513 688 l 513 591 l 459 591 l 453 643 q 410 670 347 676 l 347 403 l 413 362 q 475 323 498 288 q 522 254 522 202 q 522 126 475 72 q 428 18 347 0 l 347 -60 z m 347 54 q 438 98 438 186 q 438 222 423 243 q 408 265 361 297 q 356 300 347 306 z m 299 435 l 299 671 q 215 645 215 560 q 215 526 236 495 q 257 464 299 435 z"},"?":{"x_min":0,"x_max":504,"ha":504,"o":"m 163 0 l 163 96 l 259 96 l 259 0 z m 163 193 l 163 199 q 163 301 232 370 l 252 390 q 343 480 343 573 q 343 627 309 660 q 274 693 216 693 q 188 693 161 685 q 135 676 111 660 l 105 608 l 51 608 l 51 708 q 96 725 143 733 q 190 741 239 741 q 332 741 389 696 q 446 651 446 578 q 446 497 362 420 l 331 393 q 283 348 271 317 q 259 285 259 199 l 259 193 z"},"<":{"x_min":0,"x_max":632,"ha":632,"o":"m 582 24 l 51 289 l 582 554 l 582 470 l 213 289 l 582 108 z"},"'":{"x_min":0,"x_max":241,"ha":241,"o":"m 96 506 l 60 771 l 181 771 l 145 506 z"},"=":{"x_min":0,"x_max":632,"ha":632,"o":"m 51 168 l 51 241 l 582 241 l 582 168 z m 51 337 l 51 410 l 582 410 l 582 337 z"},"a":{"x_min":0,"x_max":561,"ha":561,"o":"m 378 73 q 335 30 292 9 q 250 -12 208 -12 q 141 -12 96 31 q 51 73 51 138 q 51 226 122 269 q 193 313 336 313 l 356 313 l 356 378 q 356 494 257 494 q 199 494 151 451 l 145 397 l 91 397 l 91 498 q 193 542 279 542 q 452 542 452 383 l 452 147 q 452 48 501 48 q 510 48 524 52 l 531 0 q 496 -12 468 -12 q 397 -12 378 73 z m 356 99 l 356 265 l 333 265 q 243 265 198 237 q 153 208 153 150 q 153 109 180 82 q 207 54 248 54 q 271 54 298 65 q 325 77 356 99 z"},"L":{"x_min":0,"x_max":572,"ha":572,"o":"m 554 0 l 48 0 l 48 48 l 121 48 l 121 675 l 48 675 l 48 723 l 289 723 l 289 675 l 223 675 l 223 54 l 494 54 l 494 145 l 554 145 z"},"3":{"x_min":0,"x_max":632,"ha":632,"o":"m 100 7 l 100 110 l 154 110 l 160 62 q 188 46 217 38 q 245 30 274 30 q 343 30 383 76 q 423 122 423 201 q 423 276 372 319 q 321 361 232 361 l 172 361 l 172 410 l 204 410 q 306 410 357 448 q 408 485 408 561 q 408 627 375 660 q 341 693 274 693 q 246 693 220 686 q 193 679 169 666 l 163 611 l 108 611 l 108 708 q 147 725 192 733 q 237 741 289 741 q 389 741 447 697 q 504 652 504 575 q 504 510 467 464 q 429 418 353 391 q 446 366 486 322 q 526 278 526 198 q 526 99 461 40 q 396 -18 285 -18 q 231 -18 185 -12 q 139 -5 100 7 z"},";":{"x_min":0,"x_max":316,"ha":316,"o":"m 98 410 l 98 530 l 218 530 l 218 410 z m 98 -145 l 98 -108 q 146 -101 146 0 l 98 0 l 98 121 l 218 121 l 218 17 q 218 -123 98 -145 z"},"J":{"x_min":0,"x_max":428,"ha":428,"o":"m 0 -136 l 0 -3 l 60 -3 l 60 -78 q 76 -87 91 -92 q 107 -96 123 -96 q 167 -96 189 -54 q 211 -11 211 74 l 211 675 l 126 675 l 126 723 l 379 723 l 379 675 l 313 675 l 313 134 q 313 -20 262 -82 q 211 -145 86 -145 q 66 -145 44 -142 q 23 -140 0 -136 z"},"V":{"x_min":0,"x_max":693,"ha":693,"o":"m 331 -9 l 67 675 l 25 675 l 25 723 l 249 723 l 249 675 l 177 675 l 379 148 l 573 675 l 501 675 l 501 723 l 673 723 l 673 675 l 631 675 l 378 -9 z"},"\"":{"x_min":0,"x_max":385,"ha":385,"o":"m 84 530 l 60 771 l 156 771 l 132 530 z m 253 530 l 229 771 l 325 771 l 301 530 z"},"7":{"x_min":0,"x_max":632,"ha":632,"o":"m 151 0 q 193 229 497 632 l 113 632 l 113 723 l 577 723 l 577 660 q 279 260 263 0 z"},"S":{"x_min":0,"x_max":554,"ha":554,"o":"m 63 15 l 63 153 l 117 153 l 123 81 q 164 56 198 43 q 231 30 259 30 q 320 30 360 67 q 399 104 399 162 q 399 210 375 244 q 349 278 285 314 l 234 343 q 144 395 106 441 q 68 488 68 548 q 68 631 128 686 q 188 741 277 741 q 327 741 374 733 q 421 726 467 711 l 467 584 l 413 584 l 406 653 q 375 673 344 683 q 312 693 283 693 q 237 693 204 657 q 171 621 171 570 q 171 495 270 439 l 321 410 q 427 350 464 305 q 501 260 501 192 q 501 102 434 42 q 367 -18 267 -18 q 208 -18 157 -10 q 106 -1 63 15 z"},"}":{"x_min":0,"x_max":340,"ha":340,"o":"m 307 289 l 283 289 q 208 289 208 204 q 208 183 216 139 l 225 91 q 235 31 235 12 q 235 -57 186 -101 q 137 -145 60 -145 l 60 -96 q 151 -96 151 -23 q 151 -4 146 24 l 141 58 q 130 118 130 164 q 130 269 217 313 q 130 358 130 462 q 130 508 141 569 l 146 602 q 151 630 151 650 q 151 723 60 723 l 60 771 q 136 771 186 728 q 235 684 235 618 q 235 596 225 535 l 216 487 q 208 444 208 424 q 208 337 283 337 l 307 337 z"},"Z":{"x_min":0,"x_max":645,"ha":645,"o":"m 64 0 l 64 48 l 456 675 l 136 675 l 136 603 l 82 603 l 82 723 l 569 723 l 569 675 l 181 54 l 514 54 l 514 132 l 568 132 l 568 0 z"},"x":{"x_min":0,"x_max":575,"ha":575,"o":"m 239 258 l 76 482 l 34 482 l 34 530 l 256 530 l 256 482 l 195 482 l 312 322 l 433 482 l 373 482 l 373 530 l 532 530 l 532 482 l 490 482 l 340 284 l 512 48 l 554 48 l 554 0 l 332 0 l 332 48 l 392 48 l 269 217 l 141 48 l 201 48 l 201 0 l 38 0 l 38 48 l 80 48 z"},")":{"x_min":0,"x_max":340,"ha":340,"o":"m 54 723 l 54 771 q 158 707 219 583 q 280 458 280 312 q 280 169 218 44 q 156 -82 54 -145 l 54 -96 q 184 24 184 313 q 184 602 54 723 z"},"&":{"x_min":0,"x_max":714,"ha":714,"o":"m 520 0 l 474 50 q 369 -18 273 -18 q 171 -18 101 49 q 30 117 30 214 q 30 375 213 434 q 157 521 157 583 q 157 651 205 696 q 253 741 327 741 q 404 741 450 701 q 497 662 497 596 q 497 475 334 417 q 420 269 512 155 q 563 221 563 337 l 491 337 l 491 386 l 688 386 l 688 337 l 628 337 q 628 231 543 117 l 603 48 l 657 48 l 657 0 z m 445 88 q 349 205 236 392 q 126 345 126 245 q 126 163 183 105 q 240 48 322 48 q 390 48 445 88 z m 310 458 q 407 510 407 606 q 407 650 389 671 q 371 693 334 693 q 300 693 276 668 q 253 643 253 604 q 253 555 310 458 z"},"_":{"x_min":0,"x_max":500,"ha":500,"o":"m 48 -72 l 48 0 l 452 0 l 452 -72 z"},"v":{"x_min":0,"x_max":603,"ha":603,"o":"m 274 -6 l 71 482 l 29 482 l 29 530 l 248 530 l 248 482 l 175 482 l 326 121 l 487 482 l 415 482 l 415 530 l 582 530 l 582 482 l 540 482 l 322 -6 z"},"O":{"x_min":0,"x_max":789,"ha":789,"o":"m 395 -18 q 239 -18 150 83 q 60 185 60 361 q 60 538 149 639 q 239 741 395 741 q 550 741 639 639 q 729 538 729 361 q 729 185 639 83 q 550 -18 395 -18 z m 395 30 q 498 30 559 120 q 620 210 620 361 q 620 512 559 603 q 498 693 395 693 q 292 693 230 603 q 168 513 168 361 q 168 210 230 120 q 292 30 395 30 z"},"(":{"x_min":0,"x_max":340,"ha":340,"o":"m 286 -96 l 286 -145 q 182 -80 121 44 q 60 168 60 314 q 60 457 122 583 q 185 708 286 771 l 286 723 q 156 602 156 313 q 156 24 286 -96 z"},"C":{"x_min":0,"x_max":708,"ha":708,"o":"m 642 40 q 544 -18 415 -18 q 250 -18 155 84 q 60 186 60 363 q 60 543 152 642 q 243 741 410 741 q 454 741 510 732 q 566 723 635 705 l 635 572 l 581 572 l 572 646 q 532 670 494 681 q 456 693 418 693 q 305 693 237 602 q 168 510 168 358 q 168 216 244 125 q 320 33 438 33 q 548 33 642 97 z"},"W":{"x_min":0,"x_max":924,"ha":924,"o":"m 180 675 l 296 184 l 450 717 l 504 717 l 657 180 l 794 675 l 722 675 l 722 723 l 893 723 l 893 675 l 851 675 l 661 -9 l 611 -9 l 452 547 l 290 -9 l 243 -9 l 81 675 l 39 675 l 39 723 l 246 723 l 246 675 z"},"A":{"x_min":0,"x_max":712,"ha":712,"o":"m 179 217 l 113 48 l 185 48 l 185 0 l 12 0 l 12 48 l 54 48 l 324 735 l 382 735 l 652 48 l 694 48 l 694 0 l 477 0 l 477 48 l 542 48 l 476 217 z m 198 265 l 457 265 l 327 595 z"},"f":{"x_min":0,"x_max":421,"ha":421,"o":"m 133 476 l 48 476 l 48 530 l 133 530 l 133 556 q 133 676 172 730 q 210 783 298 783 q 331 783 362 774 q 393 765 422 747 l 422 663 l 362 663 l 362 705 q 346 720 330 727 q 313 735 297 735 q 263 735 246 705 q 229 674 229 614 l 229 530 l 362 530 l 362 476 l 229 476 l 229 48 l 301 48 l 301 0 l 61 0 l 61 48 l 133 48 z"},"Q":{"x_min":0,"x_max":789,"ha":789,"o":"m 453 -12 q 421 -18 391 -18 q 238 -18 149 84 q 60 186 60 361 q 60 538 149 639 q 239 741 395 741 q 548 741 638 640 q 729 539 729 367 q 729 225 673 131 q 618 37 515 4 q 656 -60 867 -87 q 819 -123 745 -146 q 590 -106 453 -12 z m 620 361 q 620 512 559 603 q 498 693 395 693 q 292 693 230 603 q 168 513 168 361 q 168 210 230 120 q 292 30 395 30 q 498 30 559 120 q 620 210 620 361 z"},"w":{"x_min":0,"x_max":827,"ha":827,"o":"m 212 -6 l 69 482 l 27 482 l 27 530 l 236 530 l 236 482 l 164 482 l 264 140 l 410 530 l 462 530 l 599 139 l 711 482 l 639 482 l 639 530 l 804 530 l 804 482 l 762 482 l 602 -6 l 554 -6 l 412 399 l 260 -6 z"},"-":{"x_min":0,"x_max":349,"ha":349,"o":"m 60 262 l 60 334 l 289 334 l 289 262 z"},"E":{"x_min":0,"x_max":575,"ha":575,"o":"m 545 0 l 48 0 l 48 48 l 121 48 l 121 675 l 48 675 l 48 723 l 524 723 l 524 603 l 470 603 l 470 675 l 223 675 l 223 397 l 398 397 l 398 458 l 446 458 l 446 289 l 398 289 l 398 350 l 223 350 l 223 54 l 491 54 l 491 132 l 545 132 z"},"s":{"x_min":0,"x_max":528,"ha":528,"o":"m 80 27 l 80 145 l 140 145 l 140 84 q 172 61 203 48 q 234 36 263 36 q 309 36 338 60 q 367 84 367 122 q 367 180 283 212 l 233 231 q 83 290 83 394 q 83 458 134 500 q 186 542 265 542 q 304 542 344 535 q 385 527 426 512 l 426 397 l 366 397 l 366 458 q 339 476 313 485 q 288 494 263 494 q 225 494 199 471 q 173 447 173 413 q 173 382 196 361 q 220 340 287 313 l 332 294 q 405 264 434 232 q 463 199 463 148 q 463 77 407 32 q 351 -12 260 -12 q 212 -12 167 -2 q 122 7 80 27 z"},">":{"x_min":0,"x_max":632,"ha":632,"o":"m 51 554 l 582 289 l 51 24 l 51 108 l 420 289 l 51 470 z"},"l":{"x_min":0,"x_max":337,"ha":337,"o":"m 217 771 l 217 48 l 289 48 l 289 0 l 48 0 l 48 48 l 121 48 l 121 723 l 48 723 l 48 771 z"},"8":{"x_min":0,"x_max":632,"ha":632,"o":"m 221 389 q 110 466 110 557 q 110 639 169 690 q 229 741 325 741 q 416 741 471 698 q 525 655 525 583 q 525 472 383 398 q 469 362 512 309 q 556 256 556 187 q 556 97 487 39 q 418 -18 310 -18 q 205 -18 139 35 q 74 89 74 176 q 74 249 111 302 q 147 355 221 389 z m 343 422 q 441 483 441 586 q 441 635 407 664 q 374 693 316 693 q 262 693 228 662 q 194 631 194 581 q 194 539 227 505 q 259 470 343 422 z m 262 357 q 216 332 193 289 q 170 247 170 187 q 170 115 208 73 q 247 30 313 30 q 378 30 419 68 q 459 106 459 167 q 459 215 427 250 q 396 285 311 331 z"},"\\":{"x_min":0,"x_max":530,"ha":530,"o":"m 450 -145 l 6 771 l 80 771 l 524 -145 z"},"e":{"x_min":0,"x_max":563,"ha":563,"o":"m 490 24 q 398 -12 322 -12 q 206 -12 133 67 q 60 146 60 271 q 60 390 125 466 q 191 542 293 542 q 388 542 439 478 q 490 414 490 295 l 490 277 l 163 277 q 163 172 208 113 q 254 54 336 54 q 415 54 490 96 z m 168 325 l 388 325 l 388 337 q 388 494 288 494 q 233 494 204 452 q 174 410 168 325 z"},"b":{"x_min":0,"x_max":642,"ha":642,"o":"m 96 0 l 96 723 l 24 723 l 24 771 l 192 771 l 192 530 l 191 431 l 194 431 q 220 479 271 511 q 323 542 379 542 q 469 542 522 471 q 575 400 575 280 q 575 148 514 68 q 453 -12 352 -12 q 306 -12 266 6 q 226 24 192 60 l 187 60 l 187 0 z m 192 114 q 228 84 265 69 q 302 54 341 54 q 403 54 438 109 q 473 164 473 261 q 473 366 441 418 q 410 470 347 470 q 304 470 266 448 q 227 426 192 382 z"},"%":{"x_min":0,"x_max":699,"ha":699,"o":"m 28 -18 l 609 741 l 670 741 l 89 -18 z m 176 361 q 108 361 65 412 q 22 462 22 542 q 22 622 65 672 q 108 723 176 723 q 244 723 287 672 q 330 622 330 542 q 330 462 287 412 q 244 361 176 361 z m 176 410 q 217 410 237 443 q 257 476 257 542 q 257 608 237 642 q 217 675 176 675 q 136 675 115 642 q 95 608 95 542 q 95 476 115 443 q 136 410 176 410 z m 522 0 q 455 0 412 51 q 369 101 369 181 q 369 260 412 311 q 455 361 522 361 q 590 361 633 311 q 676 260 676 181 q 676 101 633 51 q 590 0 522 0 z m 522 48 q 563 48 584 82 q 604 115 604 181 q 604 247 584 280 q 563 313 522 313 q 482 313 461 280 q 441 247 441 181 q 441 115 461 82 q 482 48 522 48 z"},"m":{"x_min":0,"x_max":970,"ha":970,"o":"m 217 431 q 259 486 305 514 q 351 542 400 542 q 458 542 492 514 q 526 486 536 431 l 542 431 q 584 486 630 514 q 676 542 726 542 q 792 542 830 500 q 868 458 868 386 l 868 48 l 940 48 l 940 0 l 699 0 l 699 48 l 771 48 l 771 368 q 771 419 753 444 q 735 470 699 470 q 662 470 623 449 q 584 428 542 386 l 542 48 l 615 48 l 615 0 l 374 0 l 374 48 l 446 48 l 446 368 q 446 419 428 444 q 410 470 374 470 q 337 470 298 449 q 258 428 217 386 l 217 48 l 289 48 l 289 0 l 48 0 l 48 48 l 121 48 l 121 482 l 48 482 l 48 530 l 217 530 z"},"#":{"x_min":0,"x_max":632,"ha":632,"o":"m 99 0 l 153 217 l 7 217 l 19 277 l 168 277 l 211 446 l 53 446 l 65 506 l 226 506 l 280 723 l 342 723 l 288 506 l 417 506 l 471 723 l 533 723 l 479 506 l 625 506 l 613 446 l 464 446 l 421 277 l 580 277 l 567 217 l 407 217 l 353 0 l 290 0 l 344 217 l 216 217 l 162 0 z m 230 277 l 359 277 l 402 446 l 273 446 z"},",":{"x_min":0,"x_max":316,"ha":316,"o":"m 98 -145 l 98 -108 q 146 -101 146 0 l 98 0 l 98 121 l 218 121 l 218 17 q 218 -123 98 -145 z"},"n":{"x_min":0,"x_max":657,"ha":657,"o":"m 217 431 q 253 486 301 514 q 349 542 408 542 q 477 542 515 497 q 554 452 554 374 l 554 48 l 626 48 l 626 0 l 386 0 l 386 48 l 458 48 l 458 358 q 458 420 440 445 q 421 470 375 470 q 335 470 295 449 q 256 428 217 386 l 217 48 l 289 48 l 289 0 l 48 0 l 48 48 l 121 48 l 121 482 l 48 482 l 48 530 l 217 530 z"},"h":{"x_min":0,"x_max":656,"ha":656,"o":"m 217 431 q 253 486 301 514 q 349 542 408 542 q 477 542 515 497 q 554 452 554 374 l 554 48 l 626 48 l 626 0 l 386 0 l 386 48 l 458 48 l 458 358 q 458 420 440 445 q 421 470 375 470 q 341 470 301 449 q 262 428 217 386 l 217 48 l 289 48 l 289 0 l 48 0 l 48 48 l 121 48 l 121 723 l 48 723 l 48 771 l 217 771 z"},"z":{"x_min":0,"x_max":617,"ha":617,"o":"m 78 0 l 78 48 l 411 482 l 145 482 l 145 416 l 90 416 l 90 530 l 525 530 l 525 482 l 197 54 l 482 54 l 482 114 l 536 114 l 536 0 z"},"B":{"x_min":0,"x_max":617,"ha":617,"o":"m 362 374 q 452 360 503 309 q 555 257 555 182 q 555 102 497 50 q 465 21 425 10 q 386 0 306 0 l 48 0 l 48 48 l 121 48 l 121 675 l 48 675 l 48 723 l 321 723 q 420 723 472 682 q 524 641 524 562 q 524 499 484 451 q 443 404 362 374 z m 223 48 l 239 48 q 346 48 382 69 q 448 107 448 188 q 448 257 389 303 q 331 350 242 350 l 223 350 z m 223 397 l 246 397 q 334 397 378 435 q 422 473 422 547 q 422 616 380 645 q 339 675 242 675 l 223 675 z"},"K":{"x_min":0,"x_max":691,"ha":691,"o":"m 222 368 l 222 48 l 294 48 l 294 0 l 48 0 l 48 48 l 121 48 l 121 675 l 48 675 l 48 723 l 294 723 l 294 675 l 222 675 l 222 368 l 487 675 l 415 675 l 415 723 l 606 723 l 606 675 l 558 675 l 315 393 l 319 389 l 627 48 l 670 48 l 670 0 l 438 0 l 438 48 l 498 48 z"},"R":{"x_min":0,"x_max":675,"ha":675,"o":"m 223 319 l 223 48 l 295 48 l 295 0 l 48 0 l 48 48 l 121 48 l 121 675 l 48 675 l 48 723 l 305 723 q 427 723 488 677 q 548 632 548 542 q 548 468 511 417 q 473 367 398 340 l 591 48 l 645 48 l 645 0 l 495 0 l 297 319 z m 223 368 l 254 368 q 347 368 394 410 q 440 453 440 538 q 440 617 398 646 q 356 675 241 675 l 223 675 z"},"T":{"x_min":0,"x_max":687,"ha":687,"o":"m 292 668 l 84 668 l 84 584 l 30 584 l 30 723 l 657 723 l 657 584 l 603 584 l 603 668 l 395 668 l 395 48 l 467 48 l 467 0 l 220 0 l 220 48 l 292 48 z"},"P":{"x_min":0,"x_max":581,"ha":581,"o":"m 223 301 l 223 48 l 295 48 l 295 0 l 48 0 l 48 48 l 121 48 l 121 675 l 48 675 l 48 723 l 319 723 q 437 723 496 675 q 554 627 554 532 q 554 417 477 359 q 400 301 246 301 z m 223 350 l 261 350 q 354 350 400 396 q 446 443 446 537 q 446 613 407 644 q 368 675 271 675 l 223 675 z"},"|":{"x_min":0,"x_max":265,"ha":265,"o":"m 96 -145 l 96 771 l 168 771 l 168 -145 z"},"t":{"x_min":0,"x_max":403,"ha":403,"o":"m 358 3 q 323 -12 286 -12 q 204 -12 165 31 q 126 74 126 166 l 126 476 l 54 476 l 54 530 l 126 530 l 126 626 l 223 650 l 223 530 l 358 530 l 358 476 l 223 476 l 223 153 q 223 98 243 70 q 262 42 301 42 q 326 42 358 57 z"},"M":{"x_min":0,"x_max":874,"ha":874,"o":"m 121 48 l 121 675 l 48 675 l 48 723 l 240 723 l 443 192 l 653 723 l 825 723 l 825 675 l 753 675 l 753 48 l 825 48 l 825 0 l 584 0 l 584 48 l 657 48 l 656 584 l 446 54 l 398 54 l 187 606 l 187 48 l 265 48 l 265 0 l 48 0 l 48 48 z"},"g":{"x_min":0,"x_max":601,"ha":601,"o":"m 156 21 q 101 45 101 90 q 101 115 124 139 q 147 163 193 186 q 140 210 113 252 q 86 295 86 355 q 86 440 140 491 q 195 542 286 542 q 314 542 339 537 q 364 532 387 521 l 573 536 l 542 464 l 438 482 q 483 425 483 357 q 483 273 428 221 q 372 168 283 168 q 255 168 229 175 q 208 161 198 146 q 188 131 188 117 q 188 84 247 84 l 331 84 q 453 84 499 59 q 544 33 544 -36 q 544 -112 475 -159 q 406 -205 292 -205 q 183 -205 116 -174 q 50 -143 50 -91 q 50 -58 76 -30 q 103 -2 156 21 z m 182 353 q 182 282 208 247 q 234 211 286 211 q 336 211 362 248 q 387 284 387 357 q 387 429 361 464 q 335 500 283 500 q 232 500 207 463 q 182 427 182 353 z m 195 12 q 170 -8 158 -30 q 146 -52 146 -76 q 146 -116 181 -136 q 217 -157 287 -157 q 360 -157 405 -127 q 450 -98 450 -51 q 450 -19 425 -3 q 399 12 349 12 z"},"j":{"x_min":0,"x_max":364,"ha":364,"o":"m 259 530 l 259 5 q 259 -100 214 -152 q 169 -205 80 -205 q 33 -205 -27 -187 l -27 -84 l 33 -84 l 33 -139 q 68 -157 92 -157 q 127 -157 145 -127 q 162 -98 162 -40 l 162 482 l 90 482 l 90 530 z m 162 626 l 162 723 l 259 723 l 259 626 z"},"i":{"x_min":0,"x_max":337,"ha":337,"o":"m 217 530 l 217 48 l 289 48 l 289 0 l 48 0 l 48 48 l 121 48 l 121 482 l 48 482 l 48 530 z m 121 626 l 121 723 l 217 723 l 217 626 z"},"y":{"x_min":0,"x_max":606,"ha":606,"o":"m 270 0 l 69 482 l 27 482 l 27 530 l 246 530 l 246 482 l 173 482 l 324 121 l 485 482 l 413 482 l 413 530 l 580 530 l 580 482 l 538 482 l 320 -6 l 236 -193 l 122 -193 z"},"@":{"x_min":0,"x_max":876,"ha":876,"o":"m 538 22 q 455 -18 369 -18 q 225 -18 136 67 q 48 152 48 292 q 48 469 187 605 q 325 741 506 741 q 643 741 734 653 q 826 566 826 435 q 826 314 752 229 q 679 145 575 145 q 535 145 514 158 q 494 172 494 200 q 494 247 517 310 l 511 310 q 464 228 417 186 q 369 145 321 145 q 281 145 256 175 q 232 205 232 256 q 232 375 312 474 q 392 572 489 572 q 506 572 530 568 q 554 563 584 554 l 628 554 l 572 271 q 568 249 568 230 q 568 213 577 205 q 587 196 606 196 q 675 196 726 266 q 777 336 777 431 q 777 542 698 618 q 618 693 500 693 q 340 693 218 571 q 96 448 96 289 q 96 176 174 103 q 251 30 371 30 q 446 30 522 65 z m 525 400 l 546 503 q 520 514 499 519 q 478 524 462 524 q 402 524 353 452 q 304 380 304 291 q 304 248 316 226 q 327 205 350 205 q 383 205 431 259 q 480 313 525 400 z"},".":{"x_min":0,"x_max":316,"ha":316,"o":"m 98 0 l 98 121 l 218 121 l 218 0 z"},"p":{"x_min":0,"x_max":666,"ha":666,"o":"m 217 0 l 217 -145 l 289 -145 l 289 -193 l 48 -193 l 48 -145 l 121 -145 l 121 482 l 48 482 l 48 530 l 217 530 l 217 431 q 253 486 300 514 q 346 542 403 542 q 493 542 546 471 q 600 400 600 280 q 600 148 539 68 q 478 -12 376 -12 q 330 -12 290 6 q 250 24 215 60 z m 217 114 q 252 84 289 69 q 326 54 365 54 q 427 54 462 109 q 497 164 497 261 q 497 366 466 418 q 435 470 372 470 q 329 470 290 448 q 251 426 217 382 z"},"X":{"x_min":0,"x_max":640,"ha":640,"o":"m 264 362 l 78 675 l 36 675 l 36 723 l 267 723 l 267 675 l 195 675 l 343 427 l 504 675 l 432 675 l 432 723 l 611 723 l 611 675 l 569 675 l 375 376 l 568 48 l 610 48 l 610 0 l 380 0 l 380 48 l 453 48 l 295 311 l 124 48 l 196 48 l 196 0 l 17 0 l 17 48 l 59 48 z"},"*":{"x_min":0,"x_max":494,"ha":494,"o":"m 278 562 l 416 626 l 438 558 l 290 528 q 290 533 290 536 q 290 550 278 562 z m 284 512 l 388 401 l 329 358 l 255 491 q 275 495 284 512 z m 238 491 l 165 358 l 106 401 l 209 512 q 220 495 238 491 z m 204 528 l 55 558 l 78 626 l 215 562 q 204 549 204 536 q 204 533 204 528 z m 229 572 l 210 723 l 283 723 l 265 572 q 254 577 247 577 q 239 577 229 572 z"},"Y":{"x_min":0,"x_max":657,"ha":657,"o":"m 281 321 l 71 675 l 29 675 l 29 723 l 262 723 l 262 675 l 190 675 l 357 394 l 528 675 l 456 675 l 456 723 l 633 723 l 633 675 l 591 675 l 383 331 l 383 48 l 456 48 l 456 0 l 208 0 l 208 48 l 281 48 z"},"c":{"x_min":0,"x_max":545,"ha":545,"o":"m 470 18 q 393 -12 324 -12 q 205 -12 133 65 q 60 142 60 268 q 60 391 129 467 q 198 542 312 542 q 342 542 382 536 q 421 530 470 518 l 470 397 l 416 397 l 410 464 q 389 479 366 487 q 343 494 319 494 q 252 494 207 429 q 163 364 163 267 q 163 167 209 111 q 255 54 335 54 q 404 54 470 84 z"},"!":{"x_min":0,"x_max":289,"ha":289,"o":"m 96 0 l 96 96 l 192 96 l 192 0 z m 120 193 l 96 578 l 96 723 l 192 723 l 192 578 l 168 193 z"},"/":{"x_min":0,"x_max":530,"ha":530,"o":"m 6 -145 l 450 771 l 524 771 l 80 -145 z"},"[":{"x_min":0,"x_max":340,"ha":340,"o":"m 96 -145 l 96 771 l 289 771 l 289 723 l 181 723 l 181 -96 l 289 -96 l 289 -145 z"},"6":{"x_min":0,"x_max":632,"ha":632,"o":"m 175 370 q 208 417 252 440 q 295 464 349 464 q 443 464 503 401 q 563 337 563 237 q 563 129 495 55 q 427 -18 327 -18 q 205 -18 139 78 q 72 173 72 350 q 72 536 148 638 q 224 741 362 741 q 401 741 444 732 q 486 723 530 705 l 530 603 l 476 603 l 470 660 q 442 676 414 685 q 385 693 355 693 q 275 693 225 603 q 175 513 175 370 z m 178 266 q 178 166 223 98 q 268 30 333 30 q 395 30 431 81 q 467 131 467 218 q 467 310 430 363 q 394 416 331 416 q 266 416 222 373 q 178 330 178 266 z"},"r":{"x_min":0,"x_max":452,"ha":452,"o":"m 211 386 l 211 48 l 283 48 l 283 0 l 42 0 l 42 48 l 114 48 l 114 482 l 42 482 l 42 530 l 211 530 l 211 431 q 276 542 384 542 q 400 542 416 536 l 416 404 l 355 404 l 355 458 l 340 458 q 278 458 211 386 z"},"2":{"x_min":0,"x_max":632,"ha":632,"o":"m 90 0 l 90 48 q 131 169 221 252 l 272 300 q 359 382 391 432 q 422 481 422 539 q 422 607 385 650 q 348 693 288 693 q 254 693 223 679 q 191 665 163 636 l 157 578 l 103 578 l 103 693 q 159 717 207 729 q 255 741 294 741 q 398 741 461 687 q 524 632 524 542 q 524 422 390 324 l 334 283 q 190 176 184 84 l 521 84 l 521 0 z"},"{":{"x_min":0,"x_max":340,"ha":340,"o":"m 33 337 l 57 337 q 132 337 132 423 q 132 444 124 487 l 115 535 q 105 596 105 615 q 105 684 154 727 q 203 771 280 771 l 280 723 q 189 723 189 649 q 189 630 194 602 l 200 569 q 210 508 210 462 q 210 358 124 313 q 210 269 210 164 q 210 118 200 58 l 194 24 q 189 -4 189 -23 q 189 -96 280 -96 l 280 -145 q 204 -145 155 -101 q 105 -58 105 9 q 105 31 115 91 l 124 139 q 132 183 132 203 q 132 289 57 289 l 33 289 z"},"9":{"x_min":0,"x_max":632,"ha":632,"o":"m 457 339 q 419 299 377 279 q 335 259 287 259 q 196 259 133 326 q 69 394 69 491 q 69 599 136 670 q 203 741 303 741 q 432 741 496 653 q 561 565 561 389 q 561 207 476 94 q 392 -19 257 -19 q 219 -19 181 -12 q 142 -6 103 6 l 103 108 l 157 108 l 163 55 q 189 42 214 36 q 240 30 264 30 q 346 30 397 111 q 448 193 457 339 z m 455 457 q 455 557 410 625 q 365 693 299 693 q 237 693 201 642 q 166 592 166 505 q 166 413 202 360 q 239 307 301 307 q 367 307 411 350 q 455 393 455 457 z"}," ":{"x_min":0,"x_max":316,"ha":316,"o":""},"I":{"x_min":0,"x_max":343,"ha":343,"o":"m 223 675 l 223 48 l 295 48 l 295 0 l 48 0 l 48 48 l 121 48 l 121 675 l 48 675 l 48 723 l 295 723 l 295 675 z"},"H":{"x_min":0,"x_max":783,"ha":783,"o":"m 223 350 l 223 48 l 295 48 l 295 0 l 48 0 l 48 48 l 121 48 l 121 675 l 48 675 l 48 723 l 295 723 l 295 675 l 223 675 l 223 397 l 560 397 l 560 675 l 488 675 l 488 723 l 735 723 l 735 675 l 663 675 l 663 48 l 735 48 l 735 0 l 488 0 l 488 48 l 560 48 l 560 350 z"},"4":{"x_min":0,"x_max":632,"ha":632,"o":"m 361 205 l 36 205 l 36 253 l 397 735 l 452 735 l 452 277 l 561 277 l 561 205 l 452 205 l 452 48 l 524 48 l 524 0 l 289 0 l 289 48 l 361 48 z m 115 277 l 361 277 l 360 606 z"},"~":{"x_min":0,"x_max":632,"ha":632,"o":"m 51 217 q 51 288 89 334 q 127 379 188 379 q 223 379 304 337 l 369 303 q 431 271 463 271 q 523 271 533 361 l 582 361 q 582 292 544 245 q 506 199 450 199 q 410 199 328 241 l 263 275 q 202 307 169 307 q 109 307 100 217 z"},"D":{"x_min":0,"x_max":777,"ha":777,"o":"m 48 0 l 48 48 l 121 48 l 121 675 l 48 675 l 48 723 l 351 723 q 526 723 622 632 q 717 541 717 375 q 717 201 624 101 q 530 0 369 0 z m 223 54 l 294 54 q 392 54 443 72 q 494 89 534 136 q 608 223 608 370 q 608 675 294 675 l 223 675 z"},"^":{"x_min":0,"x_max":632,"ha":632,"o":"m 316 561 l 132 193 l 51 193 l 316 723 l 582 193 l 500 193 z"},"0":{"x_min":0,"x_max":632,"ha":632,"o":"m 316 -18 q 201 -18 132 85 q 63 188 63 359 q 63 534 132 637 q 200 741 316 741 q 432 741 500 637 q 569 534 569 359 q 569 188 500 85 q 431 -18 316 -18 z m 316 30 q 392 30 429 113 q 467 196 467 361 q 467 520 427 606 q 388 693 316 693 q 244 693 205 606 q 166 520 166 361 q 166 196 203 113 q 241 30 316 30 z"},"F":{"x_min":0,"x_max":563,"ha":563,"o":"m 301 0 l 48 0 l 48 48 l 121 48 l 121 675 l 48 675 l 48 723 l 518 723 l 518 603 l 464 603 l 464 675 l 223 675 l 223 392 l 392 392 l 392 452 l 440 452 l 440 283 l 392 283 l 392 343 l 223 343 l 223 48 l 301 48 z"},"`":{"x_min":0,"x_max":626,"ha":626,"o":"m 191 771 l 303 771 l 408 626 l 339 626 z"},"k":{"x_min":0,"x_max":607,"ha":607,"o":"m 217 261 l 217 48 l 265 48 l 265 0 l 48 0 l 48 48 l 121 48 l 121 723 l 48 723 l 48 771 l 217 771 l 217 285 l 240 285 l 424 482 l 352 482 l 352 530 l 539 530 l 539 482 l 491 482 l 327 307 l 545 48 l 593 48 l 593 0 l 459 0 l 240 261 z"},"u":{"x_min":0,"x_max":656,"ha":656,"o":"m 440 0 l 440 100 q 403 44 355 16 q 308 -12 249 -12 q 181 -12 142 33 q 103 78 103 157 l 103 482 l 30 482 l 30 530 l 199 530 l 199 172 q 199 109 217 85 q 236 60 282 60 q 321 60 361 81 q 400 103 440 145 l 440 482 l 368 482 l 368 530 l 536 530 l 536 48 l 608 48 l 608 0 z"},"]":{"x_min":0,"x_max":340,"ha":340,"o":"m 244 771 l 244 -145 l 51 -145 l 51 -96 l 160 -96 l 160 723 l 51 723 l 51 771 z"},"U":{"x_min":0,"x_max":729,"ha":729,"o":"m 108 675 l 36 675 l 36 723 l 277 723 l 277 675 l 211 675 l 211 290 q 211 196 220 153 q 229 110 254 83 q 302 30 379 30 q 454 30 502 79 q 548 125 548 269 l 548 675 l 476 675 l 476 723 l 693 723 l 693 675 l 621 675 l 621 295 q 621 194 610 148 q 599 103 564 60 q 501 -18 370 -18 q 234 -18 171 51 q 108 120 108 269 z"},"o":{"x_min":0,"x_max":626,"ha":626,"o":"m 313 -12 q 196 -12 128 62 q 60 136 60 265 q 60 394 128 468 q 196 542 313 542 q 431 542 498 468 q 566 394 566 265 q 566 137 498 62 q 431 -12 313 -12 z m 313 36 q 378 36 421 101 q 464 166 464 265 q 464 365 421 429 q 378 494 313 494 q 248 494 205 429 q 163 365 163 265 q 163 166 205 101 q 248 36 313 36 z"},"N":{"x_min":0,"x_max":763,"ha":763,"o":"m 563 -9 l 187 574 l 187 48 l 259 48 l 259 0 l 48 0 l 48 48 l 121 48 l 121 675 l 48 675 l 48 723 l 200 723 l 583 138 l 583 675 l 511 675 l 511 723 l 721 723 l 721 675 l 649 675 l 649 -9 z"},"+":{"x_min":0,"x_max":632,"ha":632,"o":"m 280 24 l 280 253 l 51 253 l 51 325 l 280 325 l 280 554 l 353 554 l 353 325 l 582 325 l 582 253 l 353 253 l 353 24 z"},"G":{"x_min":0,"x_max":744,"ha":744,"o":"m 642 18 q 503 -18 409 -18 q 249 -18 155 85 q 60 188 60 363 q 60 540 151 640 q 241 741 400 741 q 460 741 522 732 q 584 723 648 705 l 648 566 l 594 566 l 587 639 q 544 666 502 679 q 459 693 418 693 q 306 693 237 600 q 168 508 168 355 q 168 210 245 122 q 321 33 445 33 q 485 33 540 46 l 540 265 l 455 265 l 455 313 l 690 313 l 690 265 l 642 265 z"},"q":{"x_min":0,"x_max":642,"ha":642,"o":"m 449 100 q 414 44 367 16 q 320 -12 263 -12 q 173 -12 120 59 q 66 130 66 250 q 66 382 127 462 q 188 542 290 542 q 336 542 376 524 q 417 506 451 470 l 449 530 l 545 530 l 545 -145 l 618 -145 l 618 -193 l 376 -193 l 376 -145 l 449 -145 z m 449 416 q 414 446 377 461 q 340 476 301 476 q 239 476 204 421 q 169 366 169 269 q 169 165 200 112 q 232 60 294 60 q 337 60 376 82 q 415 104 449 147 z"},"d":{"x_min":0,"x_max":666,"ha":666,"o":"m 449 0 l 449 100 q 414 44 367 16 q 320 -12 263 -12 q 173 -12 120 59 q 66 130 66 250 q 66 382 127 462 q 188 542 290 542 q 336 542 376 524 q 417 506 451 470 l 449 530 l 449 723 l 376 723 l 376 771 l 545 771 l 545 48 l 618 48 l 618 0 z m 449 416 q 414 446 377 461 q 340 476 301 476 q 239 476 204 421 q 169 366 169 269 q 169 165 200 112 q 232 60 294 60 q 337 60 376 82 q 415 104 449 147 z"},"1":{"x_min":0,"x_max":632,"ha":632,"o":"m 376 729 l 376 48 l 497 48 l 497 0 l 160 0 l 160 48 l 280 48 l 280 660 l 160 636 l 160 686 z"},"5":{"x_min":0,"x_max":632,"ha":632,"o":"m 121 0 l 121 108 l 175 108 l 181 48 q 224 30 261 30 q 331 30 373 80 q 416 131 416 212 q 416 303 359 348 q 303 394 191 394 q 170 394 139 392 l 139 723 l 503 723 l 503 639 l 196 639 l 196 446 l 215 446 q 360 446 439 383 q 518 320 518 206 q 518 100 448 41 q 377 -18 251 -18 q 189 -18 121 0 z"}}}
